<?xml version="1.0" encoding="UTF-8" standalone="no"?> <svg xmlns="http://www.w3.org/2000/svg" xmlns:xlink="http://www.w3.org/1999/xlink" xmlns:serif="http://www.serif.com/" width="100%" height="100%" viewBox="0 0 900 900" version="1.1" xml:space="preserve" style="fill-rule:evenodd;clip-rule:evenodd;stroke-linejoin:round;stroke-miterlimit:2;"><g><path d="M650.416,899.816c-115.81,-0 -277.4,-62.102 -432.86,-217.56c-199.12,-199.13 -245.09,-408.38 -203.54,-518.52c29.723,-78.742 112.61,-104.48 159.37,-112.81c29.641,-5.231 59.52,9.91 72.66,36.938l72.602,149.23c13.031,26.773 6.743,59.461 -15.289,79.488l-61.738,56.102c2.461,19.934 17.773,81.504 110.89,174.62c92.773,92.785 154.25,108.32 174.68,110.86l56.027,-61.68c20.016,-22.02 52.754,-28.332 79.5,-15.312l149.22,72.602c27.047,13.152 42.227,43.031 36.938,72.66c-8.328,46.754 -34.055,129.64 -112.79,159.36c-24.168,9.121 -53.113,14.027 -85.668,14.027l-0.002,-0.005Z" style="fill-rule:nonzero;"></path><path d="M877.296,391.746c-10.738,-0 -20.23,-7.703 -22.152,-18.637c-29.184,-167.26 -161.17,-299.24 -328.43,-328.43c-12.238,-2.149 -20.438,-13.801 -18.301,-26.039c2.137,-12.238 13.621,-20.438 26.039,-18.301c185.89,32.449 332.58,179.15 365.03,365.03c2.137,12.238 -6.058,23.891 -18.301,26.039c-1.296,0.214 -2.617,0.324 -3.886,0.324l0.001,0.014Z" style="fill-rule:nonzero;"></path><path d="M737.776,421.676c-10.727,-0 -20.23,-7.692 -22.152,-18.625c-19.488,-111.41 -107.45,-199.37 -218.87,-218.87c-12.238,-2.149 -20.41,-13.801 -18.277,-26.039c2.137,-12.227 13.668,-20.508 26.062,-18.277c130.03,22.754 232.67,125.41 255.43,255.43c2.137,12.238 -6.046,23.891 -18.301,26.039c-1.296,0.226 -2.617,0.336 -3.886,0.336l-0.006,0.006Z" style="fill-rule:nonzero;"></path></g></svg> 