<?xml version="1.0" encoding="UTF-8" standalone="no"?> <svg xmlns="http://www.w3.org/2000/svg" xmlns:xlink="http://www.w3.org/1999/xlink" xmlns:serif="http://www.serif.com/" width="100%" height="100%" viewBox="0 0 946 991" version="1.1" xml:space="preserve" style="fill-rule:evenodd;clip-rule:evenodd;stroke-linejoin:round;stroke-miterlimit:2;"><g><path d="M42.3,312.746l47.699,-38.242l0,91.129l-56.473,-45.227c2.699,-2.699 5.629,-5.399 8.773,-7.656l0.001,-0.004Z" style="fill-rule:nonzero;"></path><path d="M542.7,24.976l25.43,20.258l-191.03,-0l25.199,-20.258c41.398,-33.301 99,-33.301 140.4,-0l0.001,-0Z" style="fill-rule:nonzero;"></path><path d="M911.5,320.406l-56.473,45.227l0,-91.129l47.699,38.242c3.156,2.258 6.07,4.957 8.773,7.656l0.001,0.004Z" style="fill-rule:nonzero;"></path><path d="M742.5,90.006l-540,-0c-37.223,-0 -67.5,30.277 -67.5,67.5l0,244.11l229.33,183.49l9.742,-7.801c27.625,-22.141 62.578,-34.344 98.41,-34.344c35.832,-0 70.801,12.203 98.461,34.367l9.719,7.777l229.32,-183.48l0.004,-244.12c-0,-37.223 -30.277,-67.5 -67.5,-67.5l0.014,0.001Zm-182.39,337.51l-0.035,-0c-18.109,-0 -35.629,-7.547 -48.07,-20.676c-0.121,-0.133 -0.203,-0.289 -0.324,-0.422c-14.555,12.984 -33.504,21.086 -53.977,21.086c-21.191,-0 -40.789,-8.352 -55.176,-23.508c-14.387,-15.157 -21.707,-35.172 -20.605,-56.34c2.89,-55.309 50.148,-100.15 105.35,-100.15l10.043,-0c12.289,-0 24.168,5.113 32.629,14.016c8.461,8.902 12.938,21.059 12.301,33.336l-3.422,65.242c-0.313,5.902 1.754,11.496 5.808,15.77c4.055,4.285 9.551,6.648 15.445,6.648c25.586,0 47.281,-20.328 47.387,-44.387c0,-75.07 -60.551,-135.62 -135,-135.62c-74.449,0 -135,60.551 -135,135c0,74.449 60.551,135 135,135c24.562,0 48.59,-6.648 69.504,-19.234c10.609,-6.394 24.457,-2.976 30.887,7.68c6.407,10.645 2.965,24.469 -7.679,30.887c-27.898,16.801 -59.965,25.68 -92.699,25.68c-99.254,-0 -180,-80.746 -180,-180c-0,-99.254 80.746,-180 180,-180c99.254,-0 180,80.746 180,180c-0.215,50.004 -41.664,90.012 -92.387,90.012l0.02,-0.02Z" style="fill-rule:nonzero;"></path><path d="M426.89,349.816c-0.457,8.902 2.484,17.074 8.293,23.207c5.797,6.109 13.812,9.48 22.535,9.48c18.91,0 35.711,-15.949 36.719,-34.812l0,-0.109l2.879,-55.066l-10.043,-0c-31.117,-0 -58.777,26.242 -60.406,57.312l0.023,-0.012Z" style="fill-rule:nonzero;"></path><path d="M8.55,357.976l319.95,255.83l-328.5,262.8l0,-476.1c0,-14.844 2.93,-29.242 8.555,-42.527l-0.005,-0.003Z" style="fill-rule:nonzero;"></path><path d="M945,400.506l0,476.1l-328.27,-262.8l319.73,-255.83c5.629,13.273 8.555,27.672 8.555,42.527l-0.015,0.003Z" style="fill-rule:nonzero;"></path><path d="M542.82,612.456c-40.766,-32.652 -99.91,-32.641 -140.63,-0l-391.1,312.92c18.059,38.062 56.555,64.633 101.41,64.633l720,-0c44.855,-0 83.352,-26.578 101.41,-64.645l-391.09,-312.91l0,0.002Z" style="fill-rule:nonzero;"></path></g></svg> 