<?xml version="1.0" encoding="UTF-8" standalone="no"?> <svg xmlns="http://www.w3.org/2000/svg" xmlns:xlink="http://www.w3.org/1999/xlink" xmlns:serif="http://www.serif.com/" width="100%" height="100%" viewBox="0 0 851 1050" version="1.1" xml:space="preserve" style="fill-rule:evenodd;clip-rule:evenodd;stroke-linejoin:round;stroke-miterlimit:2;"><path d="M695.424,96.914c-48.902,-40.164 -106.12,-68.941 -167.53,-84.25c-61.402,-15.305 -125.44,-16.758 -187.47,-4.25c-108.41,22.016 -203.97,85.438 -266.37,176.79c-62.395,91.352 -86.715,203.43 -67.785,312.43c18.93,109 79.613,206.32 169.16,271.28c94.652,71.688 172.33,163.36 227.5,268.5c4.676,7.696 12.996,12.422 22,12.5c4.489,-0.039 8.883,-1.261 12.746,-3.546c3.864,-2.282 7.055,-5.543 9.254,-9.454l11.5,-21c58.578,-100.12 136.61,-187.51 229.5,-257c66.77,-52.527 116.26,-123.86 142.09,-204.79c25.832,-80.934 26.812,-167.75 2.825,-249.25c-23.992,-81.496 -71.855,-153.93 -137.42,-207.96l0,0Zm-270,503c-46.414,0 -90.926,-18.438 -123.74,-51.258c-32.82,-32.816 -51.258,-77.328 -51.258,-123.74c0,-46.412 18.438,-90.926 51.258,-123.74c32.816,-32.82 77.328,-51.258 123.74,-51.258c46.412,0 90.926,18.438 123.74,51.258c32.82,32.816 51.258,77.328 51.258,123.74c0,30.719 -8.085,60.898 -23.445,87.5c-15.359,26.602 -37.453,48.695 -64.055,64.055c-26.602,15.359 -56.781,23.445 -87.5,23.445l0.002,-0.002Z" style="fill-rule:nonzero;"></path></svg> 